<svg version="1.1" id="Layer_1" xmlns="http://www.w3.org/2000/svg" xmlns:xlink="http://www.w3.org/1999/xlink" x="0px" y="0px"
	 width="100%" viewBox="0 0 100 100" enable-background="new 0 0 100 100" xml:space="preserve">
<path fill="#2A2E2E" opacity="1.000000" stroke="none" 
	d="
M59.000000,101.000000 
	C39.333336,101.000000 20.166674,101.000000 1.000008,101.000000 
	C1.000005,67.666679 1.000005,34.333351 1.000003,1.000021 
	C34.333317,1.000014 67.666634,1.000014 100.999969,1.000007 
	C100.999977,34.333313 100.999977,67.666626 100.999985,100.999969 
	C87.166664,101.000000 73.333336,101.000000 59.000000,101.000000 
M51.746212,59.052589 
	C50.299614,64.164040 48.853016,69.275490 47.357262,74.560638 
	C51.185467,74.560638 54.816959,74.560638 58.555454,74.560638 
	C59.894844,70.955635 61.199440,67.444275 62.524307,63.878353 
	C67.827110,63.878353 72.833572,64.184845 77.782944,63.784912 
	C82.020302,63.442513 84.556190,64.784355 84.920151,69.044579 
	C85.347282,74.044067 88.071762,75.426796 92.630096,74.754860 
	C94.341698,74.502548 96.121666,74.713959 98.185837,74.713959 
	C97.966164,73.426765 97.959328,72.760330 97.737083,72.175797 
	C91.786453,56.524708 85.750839,40.905529 79.889359,25.221245 
	C78.442558,21.349863 75.388168,22.483171 72.799599,22.548559 
	C70.113655,22.616405 66.883293,21.113922 65.374161,25.386261 
	C61.896473,35.231552 58.096279,44.965900 54.239742,54.670876 
	C53.718864,55.981667 52.119793,56.864002 51.020466,57.192429 
	C51.279369,56.442299 51.441017,55.639900 51.811825,54.949909 
	C57.021278,45.256359 55.385197,35.695824 47.234257,28.380436 
	C37.753338,19.871405 22.711739,19.550177 12.879642,27.646759 
	C2.766485,35.974789 0.146233,50.891582 7.037853,62.433353 
	C12.574512,71.705894 21.003309,75.830460 31.744587,75.229958 
	C41.595543,74.679237 47.678349,69.521080 50.179394,60.021778 
	C50.297279,59.574043 50.718601,59.206196 51.746212,59.052589 
z"/>
<path fill="#F2F1EF" opacity="1.000000" stroke="none" 
	d="
M50.998611,58.801144 
	C50.718601,59.206196 50.297279,59.574043 50.179394,60.021778 
	C47.678349,69.521080 41.595543,74.679237 31.744587,75.229958 
	C21.003309,75.830460 12.574512,71.705894 7.037853,62.433353 
	C0.146233,50.891582 2.766485,35.974789 12.879642,27.646759 
	C22.711739,19.550177 37.753338,19.871405 47.234257,28.380436 
	C55.385197,35.695824 57.021278,45.256359 51.811825,54.949909 
	C51.441017,55.639900 51.279369,56.442299 51.012089,57.782612 
	C51.003712,58.372795 50.998608,58.801144 50.998611,58.801144 
M32.935215,65.015488 
	C40.367760,62.600006 44.696640,57.140759 45.009754,49.788010 
	C45.332706,42.204277 41.703419,35.663227 35.705841,33.019619 
	C30.076218,30.538191 23.447132,31.822475 19.205233,36.216358 
	C14.160743,41.441586 12.971610,49.618706 16.243254,56.584507 
	C19.227598,62.938606 24.323038,65.688766 32.935215,65.015488 
z"/>
<path fill="#F1EFED" opacity="1.000000" stroke="none" 
	d="
M51.372410,58.926865 
	C50.998608,58.801144 51.003712,58.372795 51.011841,58.158760 
	C52.119793,56.864002 53.718864,55.981667 54.239742,54.670876 
	C58.096279,44.965900 61.896473,35.231552 65.374161,25.386261 
	C66.883293,21.113922 70.113655,22.616405 72.799599,22.548559 
	C75.388168,22.483171 78.442558,21.349863 79.889359,25.221245 
	C85.750839,40.905529 91.786453,56.524708 97.737083,72.175797 
	C97.959328,72.760330 97.966164,73.426765 98.185837,74.713959 
	C96.121666,74.713959 94.341698,74.502548 92.630096,74.754860 
	C88.071762,75.426796 85.347282,74.044067 84.920151,69.044579 
	C84.556190,64.784355 82.020302,63.442513 77.782944,63.784912 
	C72.833572,64.184845 67.827110,63.878353 62.524307,63.878353 
	C61.199440,67.444275 59.894844,70.955635 58.555454,74.560638 
	C54.816959,74.560638 51.185467,74.560638 47.357262,74.560638 
	C48.853016,69.275490 50.299614,64.164040 51.372410,58.926865 
M72.486954,36.231476 
	C70.332878,42.052814 68.178810,47.874153 65.862259,54.134575 
	C70.769447,54.134575 74.872238,54.134575 79.724945,54.134575 
	C77.393188,48.064548 75.215263,42.394997 72.486954,36.231476 
z"/>
<path fill="#2C2F30" opacity="1.000000" stroke="none" 
	d="
M32.514297,65.077393 
	C24.323038,65.688766 19.227598,62.938606 16.243254,56.584507 
	C12.971610,49.618706 14.160743,41.441586 19.205233,36.216358 
	C23.447132,31.822475 30.076218,30.538191 35.705841,33.019619 
	C41.703419,35.663227 45.332706,42.204277 45.009754,49.788010 
	C44.696640,57.140759 40.367760,62.600006 32.514297,65.077393 
z"/>
<path fill="#323535" opacity="1.000000" stroke="none" 
	d="
M72.762146,36.478462 
	C75.215263,42.394997 77.393188,48.064548 79.724945,54.134575 
	C74.872238,54.134575 70.769447,54.134575 65.862259,54.134575 
	C68.178810,47.874153 70.332878,42.052814 72.762146,36.478462 
z"/>
</svg>