<?xml version="1.0" standalone="no"?>
<!DOCTYPE svg PUBLIC "-//W3C//DTD SVG 20010904//EN"
 "http://www.w3.org/TR/2001/REC-SVG-20010904/DTD/svg10.dtd">
<svg version="1.0" xmlns="http://www.w3.org/2000/svg"
 width="178.000000pt" height="158.000000pt" viewBox="0 0 178.000000 158.000000"
 preserveAspectRatio="xMidYMid meet">

<g transform="translate(0.000000,158.000000) scale(0.100000,-0.100000)"
fill="#000000" stroke="none">
<path d="M0 790 l0 -790 890 0 890 0 0 790 0 790 -890 0 -890 0 0 -790z m1178
745 c46 -9 115 -34 172 -62 77 -38 109 -61 176 -127 66 -67 89 -99 127 -176
71 -143 82 -197 82 -385 -1 -149 -3 -166 -28 -240 -88 -252 -299 -438 -575
-508 -124 -31 -379 -30 -497 2 -267 72 -480 258 -560 488 -35 100 -48 203 -42
323 7 128 25 199 80 310 33 68 59 103 127 171 79 80 184 154 202 143 5 -3 -20
-33 -54 -67 -35 -34 -77 -89 -95 -122 -101 -192 -129 -514 -62 -733 56 -180
174 -325 329 -400 118 -58 184 -73 320 -74 216 0 349 51 491 192 71 70 94 100
127 170 61 129 76 201 76 365 0 154 -15 231 -65 343 -87 195 -230 306 -427
333 -298 42 -558 -131 -571 -379 -4 -80 -24 -97 -29 -24 -8 105 45 246 121
324 122 126 347 178 575 133z m-536 -712 c43 -38 9 -123 -49 -123 -34 0 -46 8
-62 38 -35 65 56 135 111 85z m282 11 c10 -4 16 -18 16 -35 0 -30 -23 -49 -59
-49 -16 0 -21 -6 -21 -25 0 -14 -4 -25 -10 -25 -6 0 -10 30 -10 70 l0 70 34 0
c19 0 41 -3 50 -6z m286 -4 c0 -5 -16 -10 -35 -10 -28 0 -35 -4 -35 -20 0 -16
7 -20 30 -20 17 0 30 -4 30 -10 0 -5 -13 -10 -30 -10 -23 0 -30 -4 -30 -20 0
-16 7 -20 35 -20 19 0 35 -4 35 -10 0 -5 -22 -10 -50 -10 l-50 0 0 70 0 70 50
0 c28 0 50 -4 50 -10z"/>
<path d="M566 804 c-9 -8 -16 -24 -16 -34 0 -21 25 -50 44 -50 21 0 36 23 36
56 0 43 -34 58 -64 28z"/>
<path d="M862 798 c2 -17 9 -22 23 -20 45 8 44 42 -1 42 -21 0 -25 -4 -22 -22z"/>
</g>
</svg>
