<?xml version="1.0" standalone="no"?>
<!DOCTYPE svg PUBLIC "-//W3C//DTD SVG 20010904//EN"
 "http://www.w3.org/TR/2001/REC-SVG-20010904/DTD/svg10.dtd">
<svg version="1.0" xmlns="http://www.w3.org/2000/svg"
 width="100.000000pt" height="100.000000pt" viewBox="0 0 894.000000 342.000000"
 preserveAspectRatio="xMidYMid meet">

<g transform="translate(0.000000,342.000000) scale(0.100000,-0.100000)"
fill="#000000" stroke="none">
<path d="M0 1710 l0 -1710 4470 0 4470 0 0 1710 0 1710 -4470 0 -4470 0 0
-1710z m4350 97 c0 -19 -3 -75 -6 -125 -6 -81 -9 -92 -25 -92 -17 0 -19 9 -19
100 0 55 -2 100 -5 100 -3 0 -17 -7 -30 -16 -14 -9 -25 -12 -25 -6 0 10 88 72
103 72 4 0 7 -15 7 -33z m2072 -111 l3 -144 47 59 c49 61 52 85 15 92 -12 2
14 4 58 5 70 0 76 -1 47 -11 -19 -6 -57 -36 -89 -71 -47 -51 -53 -61 -37 -64
49 -7 60 -13 77 -41 22 -38 22 -41 -7 -41 -17 0 -26 7 -30 25 -7 27 -46 48
-71 39 -8 -4 -15 -17 -15 -30 0 -19 -5 -24 -25 -24 l-25 0 0 150 0 151 -30
-16 c-16 -9 -30 -11 -30 -6 0 9 89 71 102 71 4 0 9 -65 10 -144z m1298 52 c0
-51 -3 -144 -7 -205 -5 -101 -8 -113 -25 -113 -17 0 -18 12 -18 180 0 99 -2
180 -5 180 -3 0 -17 -7 -30 -16 -14 -9 -25 -12 -25 -6 0 10 88 72 103 72 4 0
7 -42 7 -92z m-4723 41 c48 -23 88 -68 98 -111 6 -24 4 -28 -13 -28 -13 0 -21
9 -25 29 -7 35 -50 87 -88 106 -69 36 -155 2 -192 -76 -17 -37 -27 -47 -44
-46 -21 1 -21 1 -3 37 51 99 166 138 267 89z m3081 4 c11 -10 45 -80 75 -155
54 -134 55 -138 32 -138 -18 0 -27 11 -45 53 -12 28 -36 81 -53 117 l-30 65
-40 -113 c-22 -62 -42 -110 -45 -108 -2 3 15 59 38 125 46 130 45 151 -6 151
-13 0 -24 5 -24 10 0 17 76 11 98 -7z m697 -17 c0 -29 -31 -44 -50 -25 -23 23
-9 51 24 47 18 -2 26 -9 26 -22z m-3346 -84 c13 -10 31 -28 39 -40 13 -20 13
-22 -5 -22 -11 0 -25 11 -31 25 -15 32 -65 57 -97 49 -14 -3 -36 -19 -49 -35
-28 -32 -76 -41 -76 -13 0 15 -2 15 -26 -1 -14 -9 -28 -15 -30 -12 -3 2 17 18
43 35 37 25 49 28 51 17 4 -19 5 -19 50 6 43 23 92 20 131 -9z m340 13 c30
-15 81 -70 81 -86 0 -24 -31 -5 -45 26 -10 25 -25 40 -50 51 -54 22 -92 6
-138 -60 -7 -10 -22 -17 -32 -15 -17 4 -15 8 14 41 47 54 116 71 170 43z m345
1 c32 -13 66 -51 79 -88 5 -13 1 -18 -13 -18 -13 0 -25 14 -38 43 -36 82 -115
86 -154 8 -22 -45 -30 -52 -47 -41 -22 13 25 76 69 94 45 19 63 19 104 2z
m1471 -2 c38 -18 51 -45 59 -128 6 -51 4 -58 -10 -52 -8 3 -20 6 -25 6 -5 0
-9 10 -8 23 5 56 3 57 -67 20 -36 -19 -68 -33 -71 -30 -3 3 22 19 54 36 82 41
92 54 66 89 -39 53 -124 38 -159 -29 -22 -44 -26 -32 -8 29 l16 52 60 0 c34 0
74 -7 93 -16z m1541 0 c51 -24 64 -58 64 -164 0 -83 -1 -90 -20 -90 -18 0 -20
7 -20 74 0 124 -27 176 -93 176 -31 0 -46 -7 -73 -34 -33 -33 -34 -35 -34
-121 0 -84 -1 -86 -22 -83 -22 3 -23 8 -26 101 -1 53 -6 97 -10 97 -4 0 -18
-7 -30 -16 -12 -8 -22 -11 -22 -5 0 12 83 71 99 71 6 0 11 -9 11 -20 0 -18 2
-18 36 5 43 29 91 32 140 9z m374 -7 c48 -31 70 -75 72 -138 2 -76 -10 -119
-31 -119 -16 0 -18 8 -13 69 5 74 -7 124 -39 165 -27 35 -80 36 -113 3 -34
-34 -53 -124 -40 -188 10 -44 9 -49 -7 -49 -40 0 -50 141 -14 210 35 67 123
90 185 47z m495 8 c46 -23 57 -55 63 -182 l4 -113 -36 0 c-35 0 -47 12 -26 25
10 6 15 165 5 165 -3 0 -33 -14 -66 -30 -64 -33 -99 -76 -99 -122 0 -21 -5
-28 -20 -28 -15 0 -20 7 -20 29 0 37 31 75 88 107 103 58 122 73 115 91 -12
36 -36 53 -72 53 -44 0 -75 -20 -97 -62 -22 -43 -26 -31 -8 30 l16 52 60 0
c33 0 74 -7 93 -15z m-3485 -60 c0 -58 -2 -65 -20 -65 -16 0 -19 8 -22 58 -3
57 -3 57 -38 63 -29 5 -26 7 23 8 l57 1 0 -65z m246 49 c-3 -9 -6 -40 -6 -70
0 -47 -2 -54 -20 -54 -18 0 -20 7 -20 64 l0 65 -32 4 c-20 2 -10 4 26 5 49 2
57 0 52 -14z m369 7 c-39 -8 -41 -26 -11 -95 l25 -56 -22 0 c-18 0 -29 15 -57
73 -31 64 -38 72 -65 75 -56 4 -62 -9 -32 -77 l26 -61 -22 0 c-19 0 -29 13
-54 69 -26 59 -35 70 -59 74 -16 2 45 4 136 4 91 0 152 -2 135 -6z m222 -1
c-43 -13 -55 -27 -78 -91 -31 -84 -43 -84 -14 0 26 77 23 86 -30 94 -16 2 11
4 60 5 64 0 82 -2 62 -8z m1420 -57 c-4 -38 -7 -91 -7 -120 0 -43 -3 -51 -17
-49 -15 2 -18 16 -21 94 -1 51 -5 92 -8 92 -3 0 -14 -5 -26 -11 -38 -20 -29
-1 14 30 66 46 72 43 65 -36z"/>
</g>
</svg>
